HIERARCHY
ROOT Hips
{
  OFFSET 50.017 100.668 13.9417
  CHANNELS 6 Xposition Yposition Zposition Zrotation Xrotation Yrotation
  JOINT spine
  {
    OFFSET 0 8.81705 0.507024
    CHANNELS 3 Zrotation Xrotation Yrotation
    JOINT spine1
    {
      OFFSET 0 10.7766 0
      CHANNELS 3 Zrotation Xrotation Yrotation
      JOINT spine2
      {
        OFFSET 0 10.3259 0
        CHANNELS 3 Zrotation Xrotation Yrotation
        JOINT Neck
        {
          OFFSET 0 26.511 1.26395
          CHANNELS 3 Zrotation Xrotation Yrotation
          JOINT Head
          {
            OFFSET 0 8.00966 0
            CHANNELS 3 Zrotation Xrotation Yrotation
            End Site
            {
              OFFSET 0 19.3879 -6.39386
            }
          }
        }
        JOINT RightShoulder
        {
          OFFSET -4.34795 11.1512 -0.605422
          CHANNELS 3 Zrotation Xrotation Yrotation
          JOINT RightArm
          {
            OFFSET 0 14.6258 0
            CHANNELS 3 Zrotation Xrotation Yrotation
            JOINT RightArmRoll
            {
              OFFSET 0 7.3834 0
              CHANNELS 3 Zrotation Xrotation Yrotation
              JOINT RightForeArm
              {
                OFFSET 0 21.5052 0
                CHANNELS 3 Zrotation Xrotation Yrotation
                JOINT RightForeArmRoll
                {
                  OFFSET 0 8.28532 0
                  CHANNELS 3 Zrotation Xrotation Yrotation
                  JOINT RightHand
                  {
                    OFFSET 0 16.6268 0
                    CHANNELS 3 Zrotation Xrotation Yrotation
                    End Site
                    {
                      OFFSET 0 0 0
                    }
                  }
                }
              }
            }
          }
        }
        JOINT LeftShoulder
        {
          OFFSET 4.34795 11.1512 -0.605422
          CHANNELS 3 Zrotation Xrotation Yrotation
          JOINT LeftArm
          {
            OFFSET 0 14.6258 0
            CHANNELS 3 Zrotation Xrotation Yrotation
            JOINT LeftArmRoll
            {
              OFFSET 0 7.3834 0
              CHANNELS 3 Zrotation Xrotation Yrotation
              JOINT LeftForeArm
              {
                OFFSET 0 21.5052 0
                CHANNELS 3 Zrotation Xrotation Yrotation
                JOINT LeftForeArmRoll
                {
                  OFFSET 0 8.28532 0
                  CHANNELS 3 Zrotation Xrotation Yrotation
                  JOINT LeftHand
                  {
                    OFFSET 0 16.6268 0
                    CHANNELS 3 Zrotation Xrotation Yrotation
                    End Site
                    {
                      OFFSET 0 0 0
                    }
                  }
                }
              }
            }
          }
        }
      }
    }
  }
  JOINT RightUpLeg
  {
    OFFSET -7.8151 -1.43309 -1.20217
    CHANNELS 3 Zrotation Xrotation Yrotation
    JOINT RightUpLegRoll
    {
      OFFSET 0 19.4959 0
      CHANNELS 3 Zrotation Xrotation Yrotation
      JOINT RightLeg
      {
        OFFSET 0 -24.1427 0
        CHANNELS 3 Zrotation Xrotation Yrotation
        JOINT RightLegRoll
        {
          OFFSET 0 24.2217 0
          CHANNELS 3 Zrotation Xrotation Yrotation
          JOINT RightFoot
          {
            OFFSET 0 20.1605 0
            CHANNELS 3 Zrotation Xrotation Yrotation
            JOINT RightToeBase
            {
              OFFSET 0 16.8532 0
              CHANNELS 3 Zrotation Xrotation Yrotation
              End Site
              {
                OFFSET 0.00714343 8.16187 -0.94078
              }
            }
          }
        }
      }
    }
  }
  JOINT LeftUpLeg
  {
    OFFSET 7.8151 -1.43309 -1.20217
    CHANNELS 3 Zrotation Xrotation Yrotation
    JOINT LeftUpLegRoll
    {
      OFFSET 0 19.496 0
      CHANNELS 3 Zrotation Xrotation Yrotation
      JOINT LeftLeg
      {
        OFFSET 0 24.1426 0
        CHANNELS 3 Zrotation Xrotation Yrotation
        JOINT LeftLegRoll
        {
          OFFSET 0 24.4456 0
          CHANNELS 3 Zrotation Xrotation Yrotation
          JOINT LeftFoot
          {
            OFFSET 0 19.9366 0
            CHANNELS 3 Zrotation Xrotation Yrotation
            JOINT LeftToeBase
            {
              OFFSET 0 16.8532 0
              CHANNELS 3 Zrotation Xrotation Yrotation
              End Site
              {
                OFFSET -0.0320138 8.16186 -0.940781
              }
            }
          }
        }
      }
    }
  }
}
MOTION
Frames: 8
Frame Time: 0.00208333
50.554 100.595 14.7789 -0.651134 -2.71682 -2.26477 0.028412 -1.96956 -0.120908 0.0528268 0.0707175 -0.245903 0.056016 1.71579 -0.246996 10.559 23.176 0.958851 -5.78162 -4.14703 3.56764 36.0543 -6.35929 -2.68423 47.2115 34.5694 12.9452 7.95139e-016 3.18055e-015 6.36111e-015 -156.68 67.3817 146.424 -6.379e-006 -1.04733e-006 -3.00066 8.02889 -4.95147 0.697685 -62.0654 -3.98911 2.7394 -109.006 15.0745 -5.3336 -1.6826e-006 7.29308e-007 1.19694e-006 -11.306 3.48756 0.819971 -4.9581e-006 -2.91114e-006 3 -8.02887 -4.95149 -0.697697 178.138 -0.998148 -0.0534369 180 7.01543e-015 178.906 178.154 5.89417 179.719 -3.64242e-006 -1.1545e-006 0.0385478 -18.0416 67.1669 18.8642 8.13737 25.2456 -3.48016 -176.61 -1.23814 0.977733 4.54188e-006 -4.6773e-006 -1.159 -3.26846 -9.63541 0.0627193 -1.37099e-006 -3.52311e-006 -0.154111 20.1138 69.6514 -21.0213 -8.19556 26.2256 2.85497 
50.5474 100.595 14.782 -0.654059 -2.71933 -2.26764 0.0283238 -1.97058 -0.122587 0.0527283 0.0692892 -0.248604 0.0559068 1.71436 -0.249704 10.4997 23.1938 0.944444 -5.7199 -4.16819 3.54306 36.0676 -6.34325 -2.67003 47.2687 34.5506 12.5719 -1.76556e-031 -6.36111e-015 -1.59028e-015 -156.653 67.1738 146.213 -6.379e-006 -1.04733e-006 -3.00066 8.02889 -4.95147 0.697685 -62.0715 -3.9914 2.74114 -109.032 15.1081 -5.29455 -1.6826e-006 7.29308e-007 1.19694e-006 -11.3192 3.49671 0.820628 -4.9581e-006 -2.91114e-006 3 -8.02887 -4.95149 -0.697697 178.144 -1.00411 -0.0562095 180 7.01543e-015 178.906 178.154 5.89052 179.72 -3.64242e-006 -1.1545e-006 0.0385169 -18.0435 67.1691 18.8662 8.13723 25.2437 -3.48349 -176.605 -1.24572 0.975748 4.54188e-006 -4.6773e-006 -1.15906 -3.26772 -9.62967 0.062576 -1.37099e-006 -3.52311e-006 -0.15412 20.1145 69.6522 -21.0221 -8.19513 26.2196 2.85197 
50.5458 100.597 14.7905 -0.656921 -2.72203 -2.27038 0.028182 -1.97149 -0.124196 0.0525003 0.0680198 -0.25128 0.0556743 1.71309 -0.252383 10.4381 23.2087 0.931184 -5.6575 -4.18493 3.51898 36.0801 -6.32773 -2.65628 47.3266 34.5318 12.2208 1.51076e-014 3.18055e-015 1.27222e-014 -156.632 66.9789 146.021 -6.379e-006 -1.04733e-006 -3.00066 8.02889 -4.95147 0.697685 -62.0781 -3.99412 2.74316 -109.06 15.1442 -5.25676 -1.6826e-006 7.29308e-007 1.19694e-006 -11.3305 3.50572 0.82136 -4.9581e-006 -2.91114e-006 3 -8.02887 -4.95149 -0.697697 178.149 -1.01023 -0.0586636 180 7.01543e-015 178.906 178.154 5.88689 179.72 -3.64242e-006 -1.1545e-006 0.0384861 -18.0453 67.1713 18.8682 8.13712 25.2419 -3.48643 -176.6 -1.25348 0.974101 4.54188e-006 -4.6773e-006 -1.15912 -3.26679 -9.62376 0.0625041 -1.37099e-006 -3.52311e-006 -0.15413 20.1152 69.653 -21.0228 -8.1947 26.2136 2.84896 
50.5342 100.598 14.7889 -0.659708 -2.72494 -2.27299 0.0279752 -1.97228 -0.125717 0.0521136 0.0669127 -0.25392 0.0552907 1.71198 -0.255019 10.3744 23.2203 0.919172 -5.59482 -4.19639 3.49552 36.0916 -6.313 -2.64322 47.3854 34.5137 11.8937 4.77083e-015 6.36111e-015 3.18055e-015 -156.618 66.7978 145.848 -6.379e-006 -1.04733e-006 -3.00066 8.02889 -4.95147 0.697685 -62.0852 -3.99721 2.74544 -109.089 15.183 -5.22037 -1.6826e-006 7.29308e-007 1.19694e-006 -11.3395 3.51459 0.822176 -4.9581e-006 -2.91114e-006 3 -8.02887 -4.95149 -0.697697 178.154 -1.01653 -0.060761 180 7.01543e-015 178.906 178.154 5.88329 179.72 -3.64242e-006 -1.1545e-006 0.0384552 -18.0471 67.1734 18.8701 8.13701 25.2403 -3.48895 -176.596 -1.26144 0.972814 4.54188e-006 -4.6773e-006 -1.15918 -3.26567 -9.61765 0.0625104 -1.37099e-006 -3.52311e-006 -0.15414 20.1158 69.6537 -21.0235 -8.19428 26.2076 2.84592 
50.5283 100.598 14.7859 -0.662389 -2.72809 -2.27562 0.0276978 -1.97294 -0.127207 0.0515686 0.066046 -0.256572 0.0547555 1.71111 -0.257686 10.3069 23.2288 0.908542 -5.52964 -4.20353 3.47249 36.1019 -6.29839 -2.63023 47.4456 34.4964 11.5869 -3.18055e-015 1.27222e-014 -1.59028e-015 -156.607 66.6292 145.688 -6.379e-006 -1.04733e-006 -3.00066 8.02889 -4.95147 0.697685 -62.0929 -4.00104 2.74821 -109.118 15.2252 -5.18316 -1.6826e-006 7.29308e-007 1.19694e-006 -11.348 3.52473 0.823161 -4.9581e-006 -2.91114e-006 3 -8.02887 -4.95149 -0.697697 178.159 -1.02295 -0.0624057 180 7.01543e-015 178.906 178.154 5.87972 179.721 -3.64242e-006 -1.1545e-006 0.0384242 -18.0488 67.1755 18.872 8.13692 25.2391 -3.49098 -176.592 -1.26975 0.972008 4.54188e-006 -4.6773e-006 -1.15924 -3.26432 -9.61116 0.0626009 -1.37099e-006 -3.52311e-006 -0.15415 20.1164 69.6544 -21.0241 -8.19385 26.2016 2.84287 
50.5295 100.599 14.7896 -0.66495 -2.73145 -2.27833 0.0273585 -1.97346 -0.128729 0.0508995 0.065473 -0.259284 0.0541009 1.71054 -0.260451 10.2338 23.2347 0.899278 -5.45984 -4.20801 3.4496 36.1111 -6.28318 -2.6166 47.5072 34.4794 11.2952 -2.38542e-015 6.36111e-015 3.18055e-015 -156.591 66.4712 145.532 -6.379e-006 -1.04733e-006 -3.00066 8.02889 -4.95147 0.697685 -62.1014 -4.00594 2.75165 -109.148 15.271 -5.14328 -1.6826e-006 7.29308e-007 1.19694e-006 -11.3574 3.53718 0.824367 -4.9581e-006 -2.91114e-006 3 -8.02887 -4.95149 -0.697697 178.163 -1.02941 -0.0635709 180 7.01543e-015 178.906 178.153 5.87627 179.721 -3.64242e-006 -1.1545e-006 0.0383932 -18.0505 67.1775 18.8738 8.13686 25.2381 -3.49248 -176.589 -1.2785 0.97174 4.54188e-006 -4.6773e-006 -1.1593 -3.26269 -9.60413 0.0627724 -1.37099e-006 -3.52311e-006 -0.154161 20.1168 69.6549 -21.0246 -8.19342 26.1955 2.8398 
50.5318 100.6 14.7835 -0.667411 -2.73501 -2.28106 0.0269679 -1.97386 -0.130273 0.0501275 0.0651599 -0.262046 0.0533475 1.71023 -0.263295 10.1556 23.2385 0.891252 -5.38602 -4.21005 3.42683 36.1194 -6.26742 -2.60241 47.5701 34.4628 11.0184 1.27222e-014 0 4.77083e-015 -156.573 66.3239 145.381 -6.379e-006 -1.04733e-006 -3.00066 8.02889 -4.95147 0.697685 -62.1106 -4.01178 2.75569 -109.179 15.3199 -5.10151 -1.6826e-006 7.29308e-007 1.19694e-006 -11.3672 3.55136 0.825753 -4.9581e-006 -2.91114e-006 3 -8.02887 -4.95149 -0.697697 178.166 -1.03594 -0.0643231 180 7.01543e-015 178.906 178.152 5.87292 179.722 -3.64242e-006 -1.1545e-006 0.0383622 -18.0522 67.1795 18.8756 8.13681 25.2374 -3.49351 -176.586 -1.2876 0.971946 4.54188e-006 -4.6773e-006 -1.15936 -3.26082 -9.59667 0.0630177 -1.37099e-006 -3.52311e-006 -0.154171 20.1172 69.6553 -21.025 -8.19299 26.1894 2.83671 
50.5225 100.6 14.7832 -0.669794 -2.73874 -2.28374 0.0265366 -1.97416 -0.131829 0.0492738 0.0650729 -0.264848 0.052516 1.71014 -0.266198 10.0731 23.2401 0.884337 -5.30875 -4.20991 3.40415 36.127 -6.2512 -2.58776 47.634 34.4463 10.7568 3.97569e-015 0 1.59028e-015 -156.551 66.1873 145.234 -6.379e-006 -1.04733e-006 -3.00066 8.02889 -4.95147 0.697685 -62.1203 -4.01846 2.76027 -109.21 15.3716 -5.05866 -1.6826e-006 7.29308e-007 1.19694e-006 -11.3769 3.56672 0.827278 -4.9581e-006 -2.91114e-006 3 -8.02887 -4.95149 -0.697697 178.17 -1.04255 -0.0647284 180 7.01543e-015 178.906 178.15 5.86961 179.722 -3.64242e-006 -1.1545e-006 0.0383311 -18.0538 67.1814 18.8773 8.13678 25.237 -3.49413 -176.583 -1.29698 0.97256 4.54188e-006 -4.6773e-006 -1.15941 -3.25873 -9.58885 0.0633292 -1.37099e-006 -3.52311e-006 -0.154182 20.1174 69.6557 -21.0253 -8.19255 26.1832 2.83358 
